<svg width="33" height="36" viewBox="0 0 33 36" fill="none" xmlns="http://www.w3.org/2000/svg">
    <rect y="3" width="33" height="33" rx="16.5" fill="#6685BC"/>
    <path d="M19.5795 22.2386H7.38636V18.7727H19.4886C20.4659 18.7727 21.2689 18.6174 21.8977 18.3068C22.5341 17.9962 23.0038 17.5644 23.3068 17.0114C23.6174 16.4583 23.7689 15.8106 23.7614 15.0682C23.7689 14.3409 23.6174 13.6894 23.3068 13.1136C23.0038 12.5303 22.5417 12.072 21.9205 11.7386C21.3068 11.3977 20.5265 11.2273 19.5795 11.2273H15.0114V31H10.8068V7.72727H19.5795C21.3826 7.72727 22.9091 8.05303 24.1591 8.70454C25.4091 9.34848 26.3561 10.2235 27 11.3295C27.6515 12.428 27.9773 13.6629 27.9773 15.0341C27.9773 16.4583 27.6477 17.7121 26.9886 18.7955C26.3295 19.8712 25.375 20.7159 24.125 21.3295C22.875 21.9356 21.3598 22.2386 19.5795 22.2386ZM20.1136 23.9659V27.4318H7.38636V23.9659H20.1136Z" fill="white"/>
</svg>
